<svg width="200" height="28" viewBox="0 0 200 28" fill="none" xmlns="http://www.w3.org/2000/svg">
<path d="M0 12.825C0.32216 11.771 0.521415 10.6574 0.990689 9.67412C1.93296 7.70578 3.52886 6.39107 5.63315 5.70392C5.36685 5.94042 5.06145 6.1434 4.83799 6.41528C2.47486 9.30355 1.99441 13.5196 5.03911 16.6294C7.53445 19.1788 10.9888 18.6332 13.4041 16.0428C13.9236 15.486 14.324 14.8175 14.7933 14.1788C14.7747 18.4637 10.594 21.8138 6.43203 20.9088C2.75605 20.1099 0.49162 17.5456 0.165736 13.8231C0.141527 13.5494 0.0558659 13.2812 0 13.0112C0 12.9497 0 12.8864 0 12.825Z" fill="white"/>
<path d="M52.9311 1.45995C54.8901 2.72997 55.8864 2.62941 56.8715 1.13034C57.473 3.01116 56.3929 4.50092 53.7523 5.31284C53.7523 10.4711 53.7523 15.6629 53.7523 20.8566C53.6387 20.9013 53.5251 20.946 53.4134 20.9907C50.4767 15.9125 47.7765 10.6983 44.7002 5.65176C44.6853 5.88267 44.6555 6.11358 44.6555 6.34636C44.6518 9.44878 44.6648 12.5512 44.6443 15.6518C44.6406 16.2346 44.8063 16.4506 45.4004 16.6667C46.391 17.0279 47.2886 17.6462 48.3091 18.2011C47.4376 19.162 46.7113 19.9646 46.1564 20.5773C45.121 20.2942 44.2495 19.9944 43.3557 19.851C43.0856 19.8082 42.6685 20.1303 42.4525 20.3948C41.8361 21.1527 42.0242 21.756 43.1154 22.8119C41.7151 22.7113 40.5456 21.6387 40.4227 20.3464C40.2179 18.2104 41.1676 17.2644 44.4897 16.3296C44.4897 14.7802 44.4897 13.2141 44.4897 11.6555C43.2104 11.3948 42.7207 11.8212 42.8491 13.0465C41.9758 12.7802 41.3017 11.7505 41.3966 10.8212C41.5363 9.4376 42.3929 8.77839 44.5251 8.48602C44.5251 7.37056 44.6592 6.21041 44.4655 5.10799C44.3761 4.6052 43.702 4.02606 43.1676 3.84356C42.8007 3.71879 42.2197 4.216 41.8082 4.40036C41.7058 3.15082 42.4339 1.80632 43.6108 1.3538C44.8715 0.869633 46.2793 1.32401 47.1024 2.71321C48.5996 5.24021 49.9814 7.83611 51.4097 10.4041C52.0931 11.6313 52.7728 12.8585 53.6089 14.0316C53.6089 11.1117 53.6089 8.18993 53.6089 5.42271C52.5903 4.96461 51.6536 4.54189 50.6313 4.08192C51.4693 3.12475 52.1825 2.31284 52.9311 1.45995Z" fill="white"/>
<path d="M89.7709 20.2607C89.7914 17.8734 89.8249 15.4879 89.8119 13.1006C89.81 12.8845 89.4264 12.4637 89.3612 12.4898C88.9106 12.6723 88.4581 12.9013 88.0931 13.2179C87.9609 13.3333 88.0726 13.7281 88.0726 14.041C87.1396 13.6164 86.8175 12.8212 86.8547 11.9237C86.905 10.7281 87.8715 9.99442 89.7635 9.58101C89.7635 7.86965 89.8529 6.13781 89.73 4.42272C89.6555 3.40038 88.7747 3.15084 87.6108 3.65363C88.1005 2.29795 89.2979 1.54376 90.7691 1.66481C92.1043 1.77468 92.9329 2.59218 93.175 4.05028C93.2216 4.32403 93.2551 4.60335 93.2551 4.88082C93.2588 9.75047 93.2588 14.6201 93.257 19.4898C93.257 19.6406 93.2421 19.7933 93.2365 19.9088C92.0447 20.0186 90.8957 20.1266 89.7486 20.2328L89.7709 20.2607Z" fill="white"/>
<path fill-rule="evenodd" clip-rule="evenodd" d="M106.874 20.318C107.022 20.4553 107.173 20.594 107.33 20.7263C107.759 20.4879 108.184 20.2533 108.605 20.0207C109.035 19.7837 109.46 19.5487 109.883 19.3137C109.89 19.3202 109.898 19.3268 109.905 19.3333C109.905 19.3227 109.905 19.3121 109.905 19.3016C110.726 18.8449 111.536 18.388 112.337 17.9162C112.59 17.7672 112.832 17.3594 112.838 17.067C112.883 15.0521 112.871 13.0354 112.849 11.0186C112.847 10.7896 112.719 10.5009 112.551 10.3464C112.153 9.98251 111.744 9.63063 111.334 9.27867C110.873 8.88308 110.413 8.48738 109.968 8.07448C109.514 7.65176 109.145 7.60335 108.588 7.93296C107.315 8.69087 106.004 9.39106 104.674 10.0484C104.207 10.2793 104.063 10.5382 104.073 11.0317C104.079 11.3607 104.088 11.6904 104.098 12.0203C104.132 13.1821 104.165 14.3466 104.052 15.4953C103.881 17.2495 104.264 18.6127 105.879 19.527C106.24 19.733 106.553 20.0224 106.874 20.318ZM109.905 19.3016C109.905 18.8601 109.905 18.426 109.905 17.9979C109.905 15.8433 109.906 13.8425 109.899 11.8417C109.899 11.6946 109.879 11.4972 109.788 11.4097C109.103 10.7513 108.406 10.1067 107.702 9.45524C107.549 9.31444 107.397 9.17331 107.244 9.03165C107.197 9.09866 107.159 9.14658 107.13 9.18277C107.085 9.23911 107.063 9.26701 107.063 9.29422C107.052 11.6462 107.043 13.9963 107.045 16.3482C107.045 16.5233 107.074 16.756 107.186 16.8622C107.807 17.4458 108.44 18.0151 109.142 18.6458C109.38 18.8603 109.627 19.082 109.883 19.3137C109.89 19.3096 109.898 19.3056 109.905 19.3016Z" fill="white"/>
<path d="M95.4656 20.5829C95.6797 20.5531 95.892 20.5121 96.108 20.4953C97.2756 20.4022 97.974 19.7058 97.9553 18.4991C97.9255 16.4674 97.7766 14.4357 97.7747 12.406C97.7728 10.5009 97.8399 8.59031 97.9889 6.69087C98.0764 5.57727 97.7486 4.77653 96.8213 4.18807C96.6406 4.07262 96.4879 3.91061 96.244 3.7039C97.0205 3.07076 97.7617 2.43202 98.5494 1.85474C98.6909 1.75046 99.0838 1.81377 99.2477 1.94413C99.8808 2.44319 100.486 2.97951 101.058 3.54562C101.22 3.70576 101.304 4.01861 101.305 4.2607C101.318 8.85288 101.326 13.4451 101.309 18.0372C101.302 20.3594 100.147 21.3519 97.8268 21.0428C97.0335 20.9367 96.2533 20.7262 95.4674 20.5642C95.4712 20.5642 95.4656 20.5829 95.4656 20.5829Z" fill="white"/>
<path d="M145.75 5.58099C142.654 8.1471 142.317 12.4395 143.924 15.1862C145.873 18.5158 149.674 19.229 152.579 16.7914C153.417 16.0894 154.065 15.162 154.732 14.4134C154.931 17.0912 152.76 19.8771 149.642 20.784C145.579 21.9665 141.034 19.041 140.259 14.8343C139.451 10.4581 142.06 7.06144 145.309 5.70204C145.413 5.65734 145.529 5.63872 145.75 5.58099Z" fill="white"/>
<path d="M16.5978 3.68528C17.5624 2.9404 18.7058 2.05772 20.0354 1.03165C20.0354 1.54003 20.0354 1.86219 20.0354 2.18435C20.0354 6.78584 20.0428 11.3855 20.028 15.987C20.0242 16.9534 19.9367 17.9199 21.0447 18.4823C20.108 19.2216 19.2644 19.8883 18.3911 20.5773C17.6127 19.8492 16.892 19.175 16.1304 18.4618C16.9348 18.1322 16.9814 17.4748 16.9758 16.7225C16.9479 12.9739 16.9758 9.22345 16.9479 5.47485C16.9442 4.93295 16.7412 4.39478 16.5978 3.68528Z" fill="white"/>
<path d="M124.333 3.18994C125.268 2.54004 126.423 1.73557 127.739 0.821228C127.763 1.34637 127.793 1.69832 127.793 2.05028C127.797 6.60335 127.829 11.1564 127.773 15.7095C127.758 16.8808 127.914 17.8566 129.117 18.4935C128.236 19.2644 127.438 19.9646 126.577 20.7169C125.788 19.9758 125.05 19.2849 124.497 18.7654C124.659 18.0223 124.885 17.4655 124.888 16.905C124.92 13.2495 124.937 9.59404 124.881 5.94041C124.868 5.09497 124.555 4.25512 124.333 3.18994Z" fill="white"/>
<path d="M141.929 6.12476C140.227 4.68155 140.555 2.25139 142.501 1.108C143.754 0.372429 145.039 0.45809 146.358 0.851014C147.778 1.27559 149.203 1.69273 150.628 2.10613C150.894 2.18435 151.166 2.24952 151.441 2.28863C152.145 2.38919 152.868 2.38919 153.205 1.63127C153.544 0.867773 153.015 0.42457 152.428 0.0316467C153.521 0.162001 154.471 0.538164 154.905 1.62569C155.358 2.76163 155.134 3.84915 154.3 4.72438C153.402 5.66852 152.25 5.96647 150.978 5.6499C148.728 5.09124 146.49 4.48602 144.235 3.94785C142.577 3.55492 141.737 4.33332 141.929 6.12476Z" fill="white"/>
<path d="M12.5121 0C14.4339 0.368715 15.3129 1.47672 15.0484 3.19926C14.7989 4.83613 13.1471 6.05214 11.4116 5.70019C9.26632 5.26443 7.15273 4.66853 5.02424 4.14339C4.66483 4.054 4.30729 3.93855 3.9423 3.89013C2.43206 3.69088 1.67228 4.51024 1.94416 6.02421C0.767255 5.41713 0.433922 3.85475 1.18253 2.45624C1.9572 1.00931 3.77098 0.223464 5.4842 0.666667C7.21604 1.11359 8.93113 1.63315 10.6555 2.11359C10.9814 2.20484 11.3166 2.31099 11.6499 2.32402C12.2756 2.35009 12.9423 2.33706 13.2123 1.61639C13.4656 0.938547 13.0857 0.499069 12.5289 0.173184C12.5028 0.158287 12.4563 0.134078 12.46 0.121043C12.4674 0.0763501 12.4935 0.0391061 12.5121 0Z" fill="white"/>
<path d="M89.7467 20.2328C89.6164 20.3985 89.4134 20.5456 89.3668 20.7319C89.2421 21.2402 88.9776 21.8622 89.1601 22.257C89.3445 22.6536 90.0168 23.0838 90.4506 23.0596C92.0186 22.9684 93.5754 22.6909 95.1378 22.4842C96.0875 22.3576 97.0354 22.1937 97.9888 22.1192C99.7076 21.9851 101.155 22.9255 101.438 24.3017C101.721 25.6797 100.78 27.0391 99.0521 27.6704C99.1788 27.3818 99.3091 27.1471 99.3817 26.8976C99.6238 26.0838 99.1862 25.3967 98.3464 25.473C96.8734 25.609 95.4153 25.8957 93.9479 26.0931C92.9385 26.2291 91.9255 26.4078 90.9125 26.4134C89.0298 26.4246 87.8194 25.4116 87.5456 23.7486C87.2775 22.1266 87.9963 21.0019 89.7728 20.2607C89.7709 20.2607 89.7467 20.2328 89.7467 20.2328Z" fill="white"/>
<path d="M115.047 9.70763C115.875 8.96648 116.609 8.30912 117.359 7.63873C118.004 8.3892 118.602 9.08752 119.339 9.94413C119.656 9.54376 119.879 9.20484 120.158 8.91992C120.75 8.31471 121.227 7.46927 122.352 8.16573C122.669 8.36127 123.279 8.0838 123.821 8.0149C123.777 9.08752 123.337 9.99627 122.354 10.6369C121.212 11.3799 120.378 10.6611 119.447 9.96462C119.399 10.2402 119.337 10.432 119.337 10.6238C119.33 12.7337 119.248 14.8492 119.384 16.9497C119.425 17.5996 120.067 18.2086 120.525 18.9907C119.991 19.4469 119.281 20.0559 118.523 20.7039C117.65 19.9218 116.823 19.1825 116.082 18.5196C116.156 17.8976 116.266 17.3706 116.276 16.8417C116.302 15.4767 116.205 14.1061 116.307 12.7486C116.395 11.5028 116.013 10.527 115.047 9.70763Z" fill="white"/>
<path d="M187.091 7.64618C187.888 9.02421 188.689 10.406 189.521 11.8473C188.773 12.4022 188.058 12.933 187.296 13.4972C186.453 12.0708 185.633 10.6834 184.693 9.09311C184.615 9.50838 184.549 9.69273 184.549 9.87895C184.542 11.9143 184.525 13.9497 184.562 15.9832C184.568 16.2737 184.784 16.6145 185 16.8361C185.67 17.5233 186.385 18.1657 187.143 18.8808C186.363 19.5065 185.622 20.0987 184.819 20.7412C183.804 19.838 182.782 18.9497 181.793 18.0279C181.652 17.8957 181.613 17.5978 181.611 17.3743C181.598 15.3575 181.588 13.3408 181.62 11.324C181.624 11.0484 181.797 10.6499 182.019 10.5214C183.667 9.54748 185.346 8.62756 187.091 7.64618Z" fill="white"/>
<path d="M31.743 20.7393C30.7337 19.8454 29.73 18.9758 28.7542 18.0726C28.6089 17.9367 28.5419 17.6518 28.54 17.4339C28.5251 15.3892 28.5196 13.3426 28.5456 11.2979C28.5493 11.0428 28.6927 10.6741 28.8883 10.5587C30.5605 9.57169 32.2607 8.63314 34.013 7.64432C34.8119 9.03538 35.6071 10.4209 36.432 11.8566C35.6704 12.419 34.9534 12.9479 34.2104 13.4953C33.3687 12.0894 32.5456 10.7188 31.7244 9.34637C31.6387 9.3743 31.5512 9.40223 31.4655 9.43016C31.4655 11.2719 31.5642 13.1192 31.432 14.9497C31.3389 16.2384 31.9199 17.0019 32.8287 17.7169C33.257 18.054 33.5959 18.5065 34.0056 18.9404C33.2644 19.5289 32.5158 20.1229 31.743 20.7393Z" fill="white"/>
<path d="M71.9181 19.0074C71.136 19.6294 70.4339 20.1881 69.6667 20.797C68.8157 20.1043 67.9423 19.4264 67.1173 18.6946C66.9553 18.5512 66.9367 18.1937 66.9348 17.9348C66.92 16.0763 66.9125 14.216 66.933 12.3575C66.9423 11.4674 66.6555 10.7542 65.9982 10.1303C63.9553 8.18808 64.4693 6.01303 67.0671 5.10428C67.0391 5.66108 66.8175 6.33705 67.0298 6.82122C67.2682 7.36312 67.8473 7.8175 68.3762 8.15456C69.4451 8.83426 69.9553 9.70018 69.8976 10.9963C69.8213 12.6965 69.9255 14.406 69.8604 16.108C69.825 17 70.0242 17.6592 70.8306 18.1192C71.1993 18.3277 71.4972 18.6555 71.9181 19.0074Z" fill="white"/>
<path d="M21.1024 9.3147C21.8194 8.69645 22.4991 8.11358 23.2253 7.48788C24.0075 8.34636 24.7877 9.18435 25.5382 10.0465C25.6574 10.1825 25.6909 10.432 25.6909 10.6275C25.689 13.2924 25.7058 15.959 25.6555 18.6238C25.5978 21.7411 23.4507 23.702 20.0764 23.5717C22.2719 22.6518 22.6667 20.8752 22.7114 18.9683C22.7654 16.5829 22.7523 14.1937 22.7076 11.8082C22.7002 11.4283 22.4209 11.0242 22.1918 10.6816C21.8827 10.2216 21.5009 9.80818 21.1024 9.3147Z" fill="white"/>
<path d="M77.8064 19.3706C75.6295 20.8864 75.6741 20.8268 73.6462 19.3762C72.7188 18.7132 72.3445 18.0317 72.4283 16.892C72.5438 15.3203 72.4321 13.7337 72.4656 12.1527C72.4842 11.257 72.4972 10.4004 71.4432 9.84916C72.352 9.04283 73.1676 8.31843 74.028 7.55679C74.8175 8.24394 75.5606 8.88826 76.4004 9.62011C75.2328 10.3147 75.4339 11.4134 75.4339 12.4525C75.4321 13.7858 75.4674 15.1192 75.419 16.4488C75.3967 17.0987 75.5661 17.5624 76.1025 17.9479C76.676 18.3613 77.1937 18.8529 77.8064 19.3706Z" fill="white"/>
<path d="M175.637 7.63315C176.408 8.46741 177.156 9.24395 177.86 10.0615C177.993 10.2142 177.981 10.5177 177.983 10.7523C177.993 12.2719 178.063 13.7952 177.965 15.3091C177.881 16.5903 178.155 17.6257 179.412 18.3669C178.559 19.1508 177.775 19.8734 176.92 20.6611C176.155 19.8343 175.408 19.0261 174.767 18.3352C174.879 17.6313 175.019 17.054 175.05 16.4711C175.095 15.6369 174.976 14.7877 175.08 13.9628C175.307 12.1471 174.797 10.6797 173.155 9.60894C174.033 8.90503 174.821 8.28119 175.637 7.63315Z" fill="white"/>
<path d="M162.555 9.62196C163.309 8.97578 164.006 8.37801 164.723 7.76535C165.536 8.57541 166.313 9.32029 167.045 10.1061C167.177 10.2477 167.143 10.5624 167.145 10.7989C167.153 12.5009 167.168 14.203 167.142 15.905C167.127 16.8175 167.058 17.7225 168.026 18.2719C167.21 19.0335 166.454 19.7411 165.631 20.5084C165.019 19.8249 164.287 19.0056 163.777 18.4339C163.965 17.5717 164.181 16.9572 164.216 16.3352C164.279 15.2253 164.164 14.1024 164.253 12.9963C164.345 11.8827 164.026 11.0074 163.181 10.2961C162.97 10.1192 162.804 9.89384 162.555 9.62196Z" fill="white"/>
<path d="M173.099 18.6015C172.592 19.1062 171.894 19.8045 171.112 20.5847C170.423 19.8305 169.749 19.0894 169.261 18.5568C169.395 17.622 169.523 16.9255 169.587 16.2216C169.633 15.7002 169.562 15.1676 169.601 14.6443C169.75 12.7021 169.67 10.8454 167.708 9.62943C168.587 8.94414 169.335 8.35941 170.177 7.70392C170.97 8.52887 171.749 9.31286 172.488 10.1304C172.6 10.2533 172.544 10.5382 172.546 10.7486C172.561 12.6071 172.534 14.4656 172.605 16.3203C172.633 17.0019 172.89 17.6741 173.099 18.6015Z" fill="white"/>
<path d="M155.687 9.58101C155.957 9.32403 156.151 9.12477 156.361 8.94228C156.829 8.53632 157.302 8.13967 157.81 7.70764C158.553 8.55122 159.296 9.37058 160.002 10.2197C160.128 10.3724 160.127 10.6574 160.128 10.8808C160.14 12.3687 160.216 13.8622 160.11 15.3427C160.009 16.7281 160.33 17.8436 161.654 18.6685C160.881 19.3575 160.182 19.9795 159.438 20.6443C158.689 19.8119 157.953 19.0261 157.261 18.203C157.128 18.0466 157.128 17.7505 157.127 17.5196C157.115 15.9069 157.073 14.2942 157.14 12.6834C157.181 11.6853 156.978 10.8585 156.199 10.1993C156.013 10.0466 155.885 9.82496 155.687 9.58101Z" fill="white"/>
<path d="M195.6 13.46C196.253 12.8343 196.857 12.257 197.531 11.6127C198.179 12.1359 198.86 12.6518 199.492 13.2235C199.665 13.3799 199.756 13.7021 199.762 13.9516C199.788 15.1304 200.13 16.4879 199.661 17.4358C199.231 18.3073 197.911 18.7412 196.98 19.365C196.339 19.7933 195.696 20.2179 195.035 20.6555C194.218 20.0819 193.434 19.1881 192.408 20.0168C192.114 20.2533 192.182 20.9386 192.095 21.3687C190.97 20.8026 190.426 19.0819 191.227 18.0708C192.108 16.9553 194.145 16.6071 195.358 17.3724C195.961 17.7542 196.551 18.1546 197.147 18.5475C197.099 18.6741 197.052 18.8026 197.004 18.9292C197.004 18.5996 197.004 18.2682 197.004 17.9386C197.004 17.4413 197.004 16.946 197.004 16.4488C197.007 14.6238 197.007 14.6238 195.6 13.46Z" fill="white"/>
<path d="M59.4525 9.16388C59.4525 10.4767 59.4525 11.6201 59.4525 12.7635C59.4525 13.8231 59.4246 14.8845 59.4749 15.9423C59.4898 16.2402 59.6816 16.5847 59.8957 16.8082C60.581 17.5177 61.3147 18.1825 62.0689 18.9013C61.3091 19.486 60.5885 20.4693 59.838 20.4916C59.149 20.514 58.4563 19.4562 57.7114 18.9553C56.7263 18.2942 56.3836 17.4562 56.4711 16.2607C56.5885 14.6574 56.4674 13.0391 56.527 11.4283C56.54 11.0857 56.8119 10.6406 57.1024 10.4451C57.7859 9.98325 58.5512 9.64433 59.4525 9.16388Z" fill="white"/>
<path d="M79.8473 7.54376C80.3259 7.93482 80.7281 8.26629 81.1322 8.59404C81.5419 8.92365 81.9535 9.24954 82.4544 9.64805C81.054 10.2439 81.1155 11.4413 81.1639 12.6778C81.216 14.0391 81.1881 15.4041 81.1639 16.7691C81.1602 17.0112 81.0745 17.3557 80.9032 17.473C80.0968 18.0298 79.2458 18.5251 78.2514 19.1415C78.2514 17.2495 78.2514 15.5345 78.2514 13.8194C78.2514 13.1993 78.2104 12.5773 78.2607 11.9609C78.3278 11.1322 78.2179 10.4115 77.244 9.95158C78.1583 9.10242 78.9814 8.34078 79.8473 7.54376Z" fill="white"/>
<path d="M129.944 10.3017C131.788 13.0819 133.564 15.7616 135.393 18.5195C134.605 19.2141 133.825 19.9032 132.961 20.6667C131.723 18.6946 130.635 16.6722 129.259 14.8678C128.132 13.3911 128.162 12.2309 129.426 10.9814C129.601 10.81 129.726 10.5922 129.944 10.3017Z" fill="white"/>
<path d="M196.155 7.52328C197.609 8.71695 198.207 8.7244 199.482 7.61267C199.598 8.91248 199.073 9.74675 197.812 10.3352C196.212 11.0819 195.268 10.0764 194.151 8.82496C194.151 9.89572 194.259 10.7542 194.125 11.5736C193.95 12.6499 194.832 12.9832 195.384 13.6257C194.732 14.2868 194.108 14.9181 193.451 15.5829C192.959 15.1248 192.542 14.676 192.063 14.3073C191.548 13.9106 191.434 13.4265 191.356 12.7989C191.14 11.0764 191.577 9.88641 193.345 9.2272C194.339 8.85662 195.196 8.11919 196.155 7.52328Z" fill="white"/>
<path d="M145.81 15.4786C145.81 12.879 145.804 10.4637 145.823 8.04841C145.825 7.8864 145.968 7.64246 146.11 7.57542C147.024 7.1378 147.957 6.73743 148.981 6.28119C149.024 6.59962 149.08 6.82867 149.08 7.05773C149.088 9.07262 149.069 11.0875 149.095 13.1006C149.102 13.6294 148.965 13.9534 148.456 14.1769C147.616 14.5438 146.806 14.9814 145.81 15.4786Z" fill="white"/>
<path d="M9.08377 6.2663C9.08377 8.75792 9.09122 11.108 9.06887 13.4581C9.06701 13.6499 8.905 13.9274 8.7374 14.0168C7.81934 14.5121 6.8752 14.9609 5.78582 15.5047C5.78582 13.5587 5.93479 11.7356 5.74299 9.94972C5.55304 8.18808 6.12288 7.18436 7.82492 6.77095C8.20667 6.67784 8.56235 6.48045 9.08377 6.2663Z" fill="white"/>
<path d="M59.5922 9.03726C60.365 8.57171 61.1248 8.11361 61.9739 7.60336C62.7877 9.01305 63.5847 10.3911 64.4246 11.8454C63.7002 12.3836 62.9944 12.9106 62.2197 13.486C61.3277 11.9758 60.4748 10.5307 59.5922 9.03726Z" fill="white"/>
<path d="M131.849 7.47299C132.957 8.37802 134.05 8.54748 135.292 7.62942C135.075 8.92178 134.624 9.91619 133.533 10.4823C132.292 11.1248 131.305 10.419 130.233 9.8324C130.778 9.03165 131.279 8.30167 131.849 7.47299Z" fill="white"/>
<path d="M156.564 4.85847C157.344 4.14153 158.043 3.49907 158.786 2.8175C159.367 3.46741 159.935 4.10428 160.568 4.81378C159.829 5.48417 159.13 6.11732 158.352 6.82495C157.775 6.18994 157.207 5.56611 156.564 4.85847Z" fill="white"/>
<path d="M11.7579 12.2886C11.1658 11.8082 10.6443 11.3836 10.0466 10.8976C10.6313 10.4097 11.1639 9.96647 11.7412 9.48416C12.3091 9.9404 12.8548 10.3799 13.4898 10.8901C12.9013 11.3668 12.3613 11.8026 11.7579 12.2886Z" fill="white"/>
<path d="M151.752 12.2905C151.171 11.8138 150.652 11.3892 150.054 10.8994C150.641 10.4078 151.173 9.96461 151.75 9.48044C152.307 9.93295 152.851 10.3724 153.488 10.8883C152.896 11.3687 152.358 11.8026 151.752 12.2905Z" fill="white"/>
<path d="M95.4711 20.5642C95.4451 17.9628 95.4059 15.3613 95.3966 12.7598C95.3836 9.20298 95.3929 5.64618 95.4693 2.08939C95.4693 8.2514 95.4693 14.4134 95.4674 20.5791C95.4655 20.5829 95.4711 20.5642 95.4711 20.5642Z" fill="white"/>
</svg>
