<svg width="16" height="16" viewBox="0 0 16 16" fill="none" xmlns="http://www.w3.org/2000/svg">
<rect opacity="0.01" width="16" height="16" fill="black"/>
<path fill-rule="evenodd" clip-rule="evenodd" d="M11.54 10.6L13.8067 12.86C13.9329 12.9852 14.0039 13.1556 14.0039 13.3333C14.0039 13.5111 13.9329 13.6815 13.8067 13.8067C13.6815 13.9329 13.5111 14.0039 13.3333 14.0039C13.1556 14.0039 12.9852 13.9329 12.86 13.8067L10.6 11.54C9.6683 12.2713 8.51777 12.6681 7.33333 12.6667C4.38781 12.6667 2 10.2789 2 7.33333C2 4.38781 4.38781 2 7.33333 2C10.2789 2 12.6667 4.38781 12.6667 7.33333C12.6681 8.51777 12.2713 9.6683 11.54 10.6ZM7.33333 3.33333C5.12419 3.33333 3.33333 5.12419 3.33333 7.33333C3.33333 9.54247 5.12419 11.3333 7.33333 11.3333C9.54247 11.3333 11.3333 9.54247 11.3333 7.33333C11.3333 5.12419 9.54247 3.33333 7.33333 3.33333Z" fill="white"/>
</svg>
